Coordinates
version=1
nRows=9
nColumns=36
inDegrees=yes

Units are S.I. units (second, meters, Newtons, ...)
If the header above contains a line with 'inDegrees', this indicates whether rotational values are in degrees (yes) or radians (no).

endheader
time	pelvis_tilt	pelvis_list	pelvis_rotation	pelvis_tx	pelvis_ty	pelvis_tz	hip_flexion_r	hip_adduction_r	hip_rotation_r	knee_angle_r	knee_angle_r_beta	ankle_angle_r	subtalar_angle_r	mtp_angle_r	hip_flexion_l	hip_adduction_l	hip_rotation_l	knee_angle_l	knee_angle_l_beta	ankle_angle_l	subtalar_angle_l	mtp_angle_l	lumbar_extension	lumbar_bending	lumbar_rotation	arm_flex_r	arm_add_r	arm_rot_r	elbow_flex_r	pro_sup_r	arm_flex_l	arm_add_l	arm_rot_l	elbow_flex_l	pro_sup_l
     45.06666670	     -3.01522479	      4.63372315	     -1.28304564	      1.08311649	      0.90567150	      0.75452317	    -12.84657645	     -3.79966243	     10.94345122	     11.83764669	      0.20660591	     15.70318203	      2.18516922	     -7.49999987	     30.23479554	      2.01972059	     -3.76438131	     11.86083908	      0.20701069	      5.21080503	     -0.99726885	     -7.49999987	    -15.17626421	     -6.67189449	      9.45514879	      4.89489180	    -19.27384740	      4.20280460	     42.12698212	     72.41456992	     -5.04633045	    -11.67876748	      0.95790417	     16.74620580	     69.97576067
     45.08333330	     -3.36981483	      4.84990588	     -1.51042006	      1.08705357	      0.89981283	      0.75151540	    -12.99998315	     -4.19231661	     10.93164982	     13.81164382	      0.24105866	     15.46986619	      1.32760607	     -7.49999987	     30.28404458	      2.73040347	     -3.46156184	     13.91462327	      0.24285599	      3.46145506	     -1.53683727	     -7.49999987	    -14.33370180	     -7.24045043	      9.43275032	      3.85855823	    -19.02419601	      4.18196602	     42.80491165	     71.81494496	     -7.00056006	    -12.17720497	      0.60236097	     19.00785270	     69.40188577
     45.10000000	     -3.48632266	      4.94052361	     -1.53352944	      1.09036412	      0.89536522	      0.74642731	    -13.12883433	     -4.43549158	     10.86813607	     16.32347858	      0.28489845	     14.67339551	     -0.08446800	     -7.49999987	     30.12837430	      3.43290677	     -2.31073403	     16.17230590	      0.28225999	      1.85242759	     -2.76183055	     -7.49999987	    -13.63482355	     -7.38557341	      9.75752676	      2.59868981	    -18.67103351	      2.44346600	     43.04949202	     73.82044046	     -6.82636534	    -12.16719560	      0.37867578	     17.04903009	     71.65297249
     45.11666670	     -3.78012582	      5.08565995	     -1.54475565	      1.09484769	      0.89339629	      0.74103434	    -12.78841361	     -4.74252037	     10.90034363	     19.24098866	      0.33581860	     12.78632564	     -1.82274783	     -7.49999987	     30.03982579	      4.06325065	     -1.46181742	     18.38567650	      0.32089059	      0.78378312	     -3.49762757	     -7.49999987	    -12.77123783	     -7.65012363	      9.54607835	      1.64237908	    -18.37726796	      2.27364083	     42.89220818	     73.46319705	     -7.74782005	    -12.35174662	      0.11138998	     17.51803598	     71.20621821
     45.13333330	     -3.83083506	      5.21076959	     -1.28833844	      1.10059187	      0.89445229	      0.73605393	    -12.43953115	     -5.13670115	     10.00379241	     22.46436849	      0.39207719	     10.27092186	     -2.19819231	     -7.49999987	     29.61894078	      4.86083804	     -0.05579641	     20.58232747	      0.35922938	      0.12582131	     -5.14208389	     -7.49999987	    -12.11857601	     -7.66120713	      9.05215130	      0.49123217	    -18.06621105	      1.54080302	     42.94215927	     73.09856049	     -8.01877076	    -12.28437310	      0.04047302	     16.73238640	     70.83329802
     45.15000000	     -3.73213129	      5.41855370	     -1.08016004	      1.10535411	      0.89744375	      0.73292552	    -11.81256377	     -5.55224449	      9.39774679	     26.14039684	      0.45623599	      6.77311143	     -3.20317016	     -7.49999987	     28.87431612	      5.63260568	      1.10410927	     22.57752354	      0.39405212	      0.31789856	     -6.29963661	     -7.49999987	    -11.64122812	     -7.81010794	      8.64316532	     -0.60585944	    -17.63364747	      0.88915205	     42.48752074	     72.66688618	     -8.19906504	    -12.43790808	      0.20401306	     16.73504711	     70.40249228
     45.16666670	     -3.48484773	      5.55784567	     -0.86453197	      1.10647268	      0.90166459	      0.73081986	    -10.66509816	     -5.79169541	      8.86106680	     30.51355346	      0.53256197	      2.67131131	     -4.22856891	     -7.49999987	     27.76078530	      6.27974115	      2.18332497	     24.15729143	      0.42162427	      0.96215172	     -7.17351844	     -7.49999987	    -11.44685559	     -7.86610147	      8.28702282	     -1.52261009	    -17.21511368	      0.30572670	     41.83900080	     72.27868256	     -7.92466791	    -12.69435208	      0.49692679	     17.05134921	     70.01545509
     45.18333330	     -3.21458778	      5.49444621	     -0.71749863	      1.10449799	      0.90677360	      0.72866673	     -8.58509939	     -5.71580837	      8.41996815	     35.83364790	      0.62541514	     -1.86727593	     -5.28341239	     -7.49999987	     26.33147577	      6.60021619	      3.02879088	     25.03949287	      0.43702159	      1.80985241	     -7.66362578	     -7.49999987	    -11.49909567	     -7.71233641	      7.93831842	     -1.97540215	    -16.81177195	     -0.15438805	     40.68888187	     72.30698472	     -7.17866590	    -12.95487433	      1.26116758	     17.34455370	     69.94494217
     45.20000000	     -2.81445229	      5.19739873	     -0.75091457	      1.10156702	      0.91300085	      0.72590248	     -5.82404520	     -5.34921414	      8.11377312	     41.66572806	      0.72720414	     -6.42558727	     -6.57738388	     -7.49999987	     24.49045056	      6.50573419	      3.49293343	     25.14510974	      0.43886496	      2.62273806	     -7.78012297	     -7.49999987	    -12.01821418	     -7.30814561	      7.75784766	     -2.13857668	    -16.63289612	     -0.28097747	     39.48086536	     72.73357477	     -6.19130861	    -13.05095140	      1.76073410	     18.11543712	     70.29439207
